# xmcd
#
# Track frame offsets:
#	150
#	15475
#	30998
#	46615
#	68208
#	83955
#	96488
#	114325
#	126613
#	140040
#	152118
#	168340
#	186370
#	208410
#	224573
#	235675
#
# Disc length: 3487 seconds
#
# Revision: 1
# Processed by: cddbd v1.5PL3 Copyright (c) Steve Scherf et al.
# Submitted via: CDex 1.50Beta5
#
DISCID=e70d9d10
DTITLE=ちあきなおみ - もあ・ちあき・わーるど
DYEAR=1900
DGENRE=Pop
TTITLE0=ちあきの夢は夜ひらく
TTITLE1=ちあきの夢は夜ひらく
TTITLE2=恍惚のブルース
TTITLE3=今日でお別れ
TTITLE4=ちあきの夢は夜ひらく
TTITLE5=知りたくないの
TTITLE6=ちあきの夢は夜ひらく
TTITLE7=つめ
TTITLE8=あいつ
TTITLE9=ちあきの夢は夜ひらく
TTITLE10=そっとおやすみ
TTITLE11=五番街のマリー
TTITLE12=船頭小唄
TTITLE13=ゴンドラの歌
TTITLE14=北帰行
TTITLE15=赤色エレジー
EXTD=
EXTT0=
EXTT1=
EXTT2=
EXTT3=
EXTT4=
EXTT5=
EXTT6=
EXTT7=
EXTT8=
EXTT9=
EXTT10=
EXTT11=
EXTT12=
EXTT13=
EXTT14=
EXTT15=
PLAYORDER=
